<?xml version="1.0" encoding="UTF-8" standalone="no"?>
<!DOCTYPE svg PUBLIC "-//W3C//DTD SVG 1.1//EN" "http://www.w3.org/Graphics/SVG/1.1/DTD/svg11.dtd">
<svg width="100%" height="100%" viewBox="0 0 1367 1543" version="1.1" xmlns="http://www.w3.org/2000/svg" xmlns:xlink="http://www.w3.org/1999/xlink" xml:space="preserve" xmlns:serif="http://www.serif.com/" style="fill-rule:evenodd;clip-rule:evenodd;stroke-linecap:square;stroke-miterlimit:10;">
    <g transform="matrix(1,0,0,1,-535.088,-813.648)">
        <g transform="matrix(1.81056,2.03728e-18,2.03728e-18,1.84383,-7577.99,472.346)">
            <circle cx="4859.07" cy="475.944" r="290.747"/>
        </g>
        <g transform="matrix(6.94799e-17,1.13469,-1.11422,6.82262e-17,2109.16,-3584.52)">
            <path d="M4348.69,294.239L4348.69,294.25M4348.69,766.691L4348.69,766.703" style="fill:none;stroke:white;stroke-width:0.56px;"/>
        </g>
        <g transform="matrix(6.94799e-17,1.13469,-1.11422,6.82262e-17,2109.16,-3584.49)">
            <path d="M4348.69,294.239L4348.69,294.25M4348.69,766.691L4348.69,766.703" style="fill:none;stroke:white;stroke-width:0.56px;"/>
        </g>
        <g transform="matrix(3.24483,3.65114e-18,4.41505e-18,3.99582,-3580.41,-8660.34)">
            <path d="M1397.96,2482.64C1395.87,2480.94 1393.56,2479.28 1390.98,2477.63C1381.05,2471.94 1370.49,2466.98 1356.62,2465.88L1356.58,2465.87C1346.59,2464.91 1334.69,2465.67 1325.5,2467.55L1323.36,2468.06C1324.04,2466.09 1324.78,2464.15 1325.57,2462.22C1325.86,2461.51 1326.16,2460.8 1326.46,2460.09C1336.04,2458.45 1347.64,2457.87 1357.53,2458.82C1372.99,2460.05 1384.86,2465.48 1395.97,2471.85L1396.06,2471.9L1396.15,2471.96C1408.8,2480.05 1415.44,2488.07 1423.08,2500.7C1428.98,2510.46 1433.31,2520.59 1440.58,2530.11C1441.4,2531.17 1442.29,2532.2 1443.25,2533.18L1443.25,2533.18C1448.38,2538.47 1454.73,2542.27 1462.29,2544.61L1462.3,2544.61C1471.29,2547.45 1480.54,2547.34 1489.85,2546.55C1492.05,2546.36 1494.22,2545.96 1496.31,2545.37C1505.22,2542.83 1511.8,2538.48 1517.09,2534.25C1517.86,2533.63 1518.59,2532.98 1519.28,2532.3C1521.69,2529.86 1523.77,2527.32 1525.41,2524.65L1458.63,2387.91C1463.68,2377.65 1475.75,2370.95 1489.13,2370.97C1502.52,2370.99 1514.56,2377.72 1519.57,2387.99L1560.82,2472.55L1601.48,2416.96C1603.47,2418.84 1605.4,2420.78 1607.27,2422.76L1564.84,2480.78L1613.5,2580.54L1595.23,2580.66C1569.69,2580.83 1546.62,2568.08 1537.06,2548.49L1529.44,2532.9C1528.35,2534.23 1527.17,2535.53 1525.9,2536.81L1525.9,2536.82C1525.01,2537.7 1524.06,2538.55 1523.06,2539.36L1523.06,2539.36C1516.96,2544.22 1509.35,2549.16 1499.11,2552.08L1499.11,2552.08C1496.39,2552.85 1493.58,2553.37 1490.73,2553.61C1480.08,2554.52 1469.53,2554.49 1459.26,2551.25C1450.26,2548.47 1442.68,2543.93 1436.56,2537.63C1435.4,2536.44 1434.32,2535.2 1433.33,2533.91L1433.32,2533.9C1428.69,2527.83 1425.2,2521.53 1421.78,2515.22L1404.74,2545.84C1391.14,2565.71 1385.16,2570.27 1372.72,2575.43C1362.45,2579.69 1356.97,2580.01 1345.24,2580.66L1397.96,2482.64Z" style="fill:white;"/>
        </g>
        <g transform="matrix(1.11422,1.25374e-18,1.25374e-18,1.13469,335.07,-5815.81)">
            <g transform="matrix(329.167,0,0,329.167,162.846,7215.04)">
                <path d="M0.605,-0.591L0.605,-0.06L0.538,-0.06L0.538,-0.151C0.477,-0.078 0.408,-0.042 0.33,-0.042C0.252,-0.042 0.186,-0.07 0.133,-0.126C0.079,-0.181 0.052,-0.247 0.052,-0.325C0.052,-0.401 0.079,-0.467 0.133,-0.523C0.187,-0.578 0.252,-0.605 0.327,-0.605C0.414,-0.605 0.484,-0.568 0.538,-0.494L0.538,-0.591L0.605,-0.591ZM0.542,-0.323C0.542,-0.384 0.522,-0.435 0.481,-0.477C0.44,-0.518 0.391,-0.539 0.332,-0.539C0.273,-0.539 0.223,-0.518 0.182,-0.475C0.141,-0.432 0.121,-0.381 0.121,-0.322C0.121,-0.263 0.142,-0.213 0.183,-0.17C0.224,-0.127 0.274,-0.105 0.332,-0.105C0.389,-0.105 0.439,-0.126 0.48,-0.167C0.521,-0.208 0.542,-0.26 0.542,-0.323Z" style="fill-rule:nonzero;"/>
            </g>
            <g transform="matrix(329.167,0,0,329.167,387.667,7215.04)">
                <path d="M0.05,-0.591L0.12,-0.591L0.12,-0.514C0.139,-0.545 0.157,-0.568 0.175,-0.583C0.192,-0.598 0.212,-0.605 0.234,-0.605C0.255,-0.605 0.277,-0.599 0.299,-0.587L0.263,-0.529C0.253,-0.535 0.243,-0.538 0.232,-0.538C0.211,-0.538 0.192,-0.527 0.174,-0.506C0.155,-0.485 0.142,-0.457 0.133,-0.424C0.124,-0.39 0.12,-0.329 0.12,-0.24L0.12,-0.06L0.05,-0.06L0.05,-0.591Z" style="fill-rule:nonzero;"/>
            </g>
            <g transform="matrix(329.167,0,0,329.167,486.746,7215.04)">
                <path d="M0.205,-0.144C0.205,-0.126 0.207,-0.115 0.212,-0.112C0.217,-0.109 0.229,-0.107 0.248,-0.107L0.289,-0.107L0.289,-0.049C0.261,-0.044 0.239,-0.042 0.223,-0.042C0.193,-0.042 0.171,-0.049 0.157,-0.064C0.143,-0.079 0.136,-0.102 0.136,-0.133L0.136,-0.533L0.042,-0.533L0.042,-0.591L0.136,-0.591L0.136,-0.796L0.205,-0.796L0.205,-0.591L0.313,-0.591L0.313,-0.533L0.205,-0.533L0.205,-0.144Z" style="fill-rule:nonzero;"/>
            </g>
            <g transform="matrix(329.167,0,0,329.167,598.333,7215.04)">
                <path d="M0.523,-0.232L0.581,-0.202C0.524,-0.095 0.439,-0.042 0.327,-0.042C0.247,-0.042 0.181,-0.07 0.129,-0.125C0.077,-0.18 0.051,-0.246 0.051,-0.323C0.051,-0.4 0.077,-0.467 0.13,-0.522C0.182,-0.577 0.247,-0.605 0.324,-0.605C0.401,-0.605 0.465,-0.579 0.518,-0.528C0.57,-0.477 0.597,-0.407 0.599,-0.318L0.121,-0.318C0.123,-0.254 0.143,-0.203 0.182,-0.164C0.22,-0.125 0.266,-0.105 0.321,-0.105C0.411,-0.105 0.478,-0.147 0.523,-0.232ZM0.523,-0.377C0.514,-0.428 0.49,-0.467 0.453,-0.496C0.416,-0.525 0.373,-0.539 0.324,-0.539C0.224,-0.539 0.159,-0.485 0.128,-0.377L0.523,-0.377Z" style="fill-rule:nonzero;"/>
            </g>
            <g transform="matrix(329.167,0,0,329.167,812.292,7215.04)">
                <path d="M0.05,-0.591L0.12,-0.591L0.12,-0.514C0.139,-0.545 0.157,-0.568 0.175,-0.583C0.192,-0.598 0.212,-0.605 0.234,-0.605C0.255,-0.605 0.277,-0.599 0.299,-0.587L0.263,-0.529C0.253,-0.535 0.243,-0.538 0.232,-0.538C0.211,-0.538 0.192,-0.527 0.174,-0.506C0.155,-0.485 0.142,-0.457 0.133,-0.424C0.124,-0.39 0.12,-0.329 0.12,-0.24L0.12,-0.06L0.05,-0.06L0.05,-0.591Z" style="fill-rule:nonzero;"/>
            </g>
            <g transform="matrix(329.167,0,0,329.167,911.371,7215.04)">
                <path d="M0.044,-0.739C0.044,-0.754 0.049,-0.768 0.061,-0.779C0.071,-0.79 0.085,-0.796 0.101,-0.796C0.116,-0.796 0.13,-0.791 0.141,-0.78C0.152,-0.769 0.157,-0.755 0.157,-0.74C0.157,-0.724 0.152,-0.711 0.141,-0.7C0.13,-0.689 0.116,-0.683 0.101,-0.683C0.085,-0.683 0.071,-0.689 0.061,-0.7C0.049,-0.711 0.044,-0.724 0.044,-0.739ZM0.066,-0.591L0.135,-0.591L0.135,-0.06L0.066,-0.06L0.066,-0.591Z" style="fill-rule:nonzero;"/>
            </g>
            <g transform="matrix(329.167,0,0,329.167,977.204,7215.04)">
                <path d="M0.051,-0.322C0.051,-0.4 0.078,-0.467 0.132,-0.522C0.185,-0.577 0.251,-0.605 0.328,-0.605C0.405,-0.605 0.47,-0.577 0.524,-0.522C0.577,-0.467 0.604,-0.4 0.604,-0.323C0.604,-0.246 0.578,-0.18 0.525,-0.125C0.471,-0.07 0.406,-0.042 0.328,-0.042C0.25,-0.042 0.184,-0.07 0.131,-0.125C0.078,-0.18 0.051,-0.245 0.051,-0.322ZM0.535,-0.321C0.535,-0.38 0.515,-0.431 0.474,-0.474C0.433,-0.517 0.384,-0.538 0.328,-0.538C0.271,-0.538 0.223,-0.517 0.182,-0.474C0.141,-0.431 0.121,-0.379 0.121,-0.32C0.121,-0.261 0.141,-0.21 0.18,-0.169C0.219,-0.128 0.268,-0.107 0.327,-0.107C0.385,-0.107 0.434,-0.128 0.475,-0.17C0.515,-0.211 0.535,-0.262 0.535,-0.321Z" style="fill-rule:nonzero;"/>
            </g>
            <g transform="matrix(329.167,0,0,329.167,1192.81,7215.04)">
                <path d="M0.05,-0.591L0.12,-0.591L0.12,-0.514C0.139,-0.545 0.157,-0.568 0.175,-0.583C0.192,-0.598 0.212,-0.605 0.234,-0.605C0.255,-0.605 0.277,-0.599 0.299,-0.587L0.263,-0.529C0.253,-0.535 0.243,-0.538 0.232,-0.538C0.211,-0.538 0.192,-0.527 0.174,-0.506C0.155,-0.485 0.142,-0.457 0.133,-0.424C0.124,-0.39 0.12,-0.329 0.12,-0.24L0.12,-0.06L0.05,-0.06L0.05,-0.591Z" style="fill-rule:nonzero;"/>
            </g>
            <g transform="matrix(329.167,0,0,329.167,1291.89,7215.04)">
                <path d="M0.343,-0.533L0.299,-0.488C0.262,-0.523 0.227,-0.541 0.192,-0.541C0.169,-0.541 0.15,-0.534 0.135,-0.52C0.12,-0.505 0.112,-0.488 0.112,-0.467C0.112,-0.446 0.12,-0.428 0.137,-0.413C0.153,-0.398 0.181,-0.38 0.221,-0.359C0.261,-0.337 0.292,-0.315 0.313,-0.291C0.334,-0.266 0.344,-0.236 0.344,-0.201C0.344,-0.156 0.329,-0.119 0.298,-0.088C0.267,-0.057 0.228,-0.042 0.183,-0.042C0.153,-0.042 0.124,-0.049 0.097,-0.062C0.069,-0.075 0.045,-0.094 0.026,-0.118L0.069,-0.166C0.104,-0.127 0.141,-0.107 0.18,-0.107C0.207,-0.107 0.231,-0.116 0.25,-0.134C0.269,-0.152 0.279,-0.173 0.279,-0.198C0.279,-0.222 0.271,-0.242 0.254,-0.258C0.237,-0.273 0.208,-0.291 0.169,-0.311C0.129,-0.331 0.099,-0.353 0.08,-0.377C0.06,-0.4 0.05,-0.431 0.05,-0.469C0.05,-0.506 0.064,-0.538 0.092,-0.565C0.119,-0.592 0.156,-0.605 0.202,-0.605C0.247,-0.605 0.294,-0.581 0.343,-0.533Z" style="fill-rule:nonzero;"/>
            </g>
        </g>
    </g>
</svg>
