<?xml version="1.0" encoding="UTF-8" standalone="no"?>
<svg
   xmlns:dc="http://purl.org/dc/elements/1.1/"
   xmlns:cc="http://creativecommons.org/ns#"
   xmlns:rdf="http://www.w3.org/1999/02/22-rdf-syntax-ns#"
   xmlns:svg="http://www.w3.org/2000/svg"
   xmlns="http://www.w3.org/2000/svg"
   viewBox="0 0 362.83466 211.65334"
   height="211.65334"
   width="362.83466"
   xml:space="preserve"
   id="svg2"
   version="1.1"><metadata
     id="metadata8"><rdf:RDF><cc:Work
         rdf:about=""><dc:format>image/svg+xml</dc:format><dc:type
           rdf:resource="http://purl.org/dc/dcmitype/StillImage" /></cc:Work></rdf:RDF></metadata><defs
     id="defs6"><clipPath
       id="clipPath20"
       clipPathUnits="userSpaceOnUse"><path
         id="path18"
         d="M 0,158.74 H 272.126 V 0 H 0 Z" /></clipPath></defs><g
     transform="matrix(1.3333333,0,0,-1.3333333,0,211.65333)"
     id="g10"><path
       id="path12"
       style="fill:#1c1e22;fill-opacity:1;fill-rule:nonzero;stroke:none"
       d="M 263.535,7.936 H 8.592 v 142.868 h 254.943 z" /><g
       id="g14"><g
         clip-path="url(#clipPath20)"
         id="g16"><g
           transform="translate(176.6455,42.7528)"
           id="g22"><path
             id="path24"
             style="fill:#ffffff;fill-opacity:1;fill-rule:nonzero;stroke:none"
             d="m 0,0 c 0,-3.218 -2.608,-5.826 -5.826,-5.826 -3.217,0 -5.825,2.608 -5.825,5.826 0,3.217 2.608,5.825 5.825,5.825 C -2.608,5.825 0,3.217 0,0" /></g><path
           id="path26"
           style="fill:#ffffff;fill-opacity:1;fill-rule:nonzero;stroke:none"
           d="M 105.041,120.487 H 95.48 v -63.09 h 9.561 z" /><g
           transform="translate(139.1411,111.4418)"
           id="g28"><path
             id="path30"
             style="fill:#ffffff;fill-opacity:1;fill-rule:nonzero;stroke:none"
             d="m 0,0 c -1.152,3.271 -3.132,5.818 -5.938,7.639 -2.807,1.821 -6.404,2.733 -10.79,2.733 -0.526,0 -1.029,-0.05 -1.538,-0.087 V 2.812 l 0.025,-1.195 c 3.088,-0.224 5.862,-1.312 7.312,-3.29 1.636,-2.23 2.453,-5.576 2.453,-10.036 V -54.242 H 1.561 V -15.78 C 1.676,-9.018 1.589,-5.019 0,0" /></g><g
           transform="translate(174.3955,111.4418)"
           id="g32"><path
             id="path34"
             style="fill:#ffffff;fill-opacity:1;fill-rule:nonzero;stroke:none"
             d="m 0,0 c -1.152,3.271 -3.132,5.818 -5.938,7.639 -2.807,1.821 -6.404,2.733 -10.79,2.733 -0.526,0 -1.029,-0.05 -1.538,-0.087 V 2.812 l 0.025,-1.195 c 3.088,-0.224 5.862,-1.312 7.312,-3.29 1.636,-2.23 2.453,-5.576 2.453,-10.036 V -54.242 H 1.561 V -15.78 C 1.676,-9.018 1.589,-5.019 0,0" /></g></g></g></g></svg>