<?xml version="1.0" encoding="UTF-8"?>
<svg width="1367px" height="300px" viewBox="0 0 1367 300" xmlns="http://www.w3.org/2000/svg" xmlns:xlink="http://www.w3.org/1999/xlink" version="1.1">
 <!-- Generated by Pixelmator Pro Demo 2.0.6 -->
 <g id="group">
  <g id="group-1">
   <g id="group-2">
    <path id="Path" d="M202.321 94.636 L202.321 292.966 177.748 292.966 177.748 258.977 C155.375 286.243 130.068 299.689 101.461 299.689 72.853 299.689 48.646 289.231 29.208 268.315 9.403 247.772 -0.5 223.121 -0.5 193.988 -0.5 165.602 9.403 140.95 29.208 120.034 49.013 99.492 72.853 89.407 100.36 89.407 132.269 89.407 157.942 103.227 177.748 130.866 L177.748 94.636 Z M179.215 194.735 C179.215 171.951 171.879 152.902 156.842 137.215 141.805 121.902 123.833 114.058 102.194 114.058 80.555 114.058 62.217 121.902 47.179 137.962 32.142 154.023 24.807 173.072 24.807 195.108 24.807 217.145 32.509 235.82 47.546 251.881 62.583 267.941 80.922 276.158 102.194 276.158 123.1 276.158 141.438 268.315 156.475 253.001 171.513 237.688 179.215 218.265 179.215 194.735 Z" fill="#000000" fill-opacity="1" stroke="none"/>
   </g>
   <g id="group-3">
    <path id="Path-1" d="M249.267 94.636 L274.94 94.636 274.94 123.396 C281.909 111.817 288.51 103.227 295.112 97.624 301.347 92.022 308.682 89.407 316.751 89.407 324.453 89.407 332.522 91.648 340.591 96.13 L327.387 117.793 C323.72 115.552 320.052 114.432 316.018 114.432 308.316 114.432 301.347 118.54 294.745 126.384 287.777 134.227 283.009 144.685 279.708 157.011 276.407 169.71 274.94 192.494 274.94 225.735 L274.94 292.966 249.267 292.966 Z" fill="#000000" fill-opacity="1" stroke="none"/>
   </g>
   <g id="group-4">
    <path id="Path-2" d="M416.511 261.592 C416.511 268.315 417.244 272.423 419.078 273.544 420.912 274.664 425.313 275.411 432.282 275.411 L447.319 275.411 447.319 297.074 C437.05 298.942 428.981 299.689 423.113 299.689 412.11 299.689 404.041 297.074 398.906 291.472 393.771 285.869 391.204 277.279 391.204 265.7 L391.204 116.299 356.728 116.299 356.728 94.636 391.204 94.636 391.204 18.068 416.511 18.068 416.511 94.636 456.121 94.636 456.121 116.299 416.511 116.299 Z" fill="#000000" fill-opacity="1" stroke="none"/>
   </g>
   <g id="group-5">
    <path id="Path-3" d="M657.474 228.724 L678.747 239.929 C657.841 279.893 626.666 299.689 585.589 299.689 556.247 299.689 532.041 289.231 512.969 268.688 493.897 248.146 484.362 223.494 484.362 194.735 484.362 165.975 493.897 140.95 513.336 120.408 532.408 99.865 556.247 89.407 584.488 89.407 612.729 89.407 636.202 99.118 655.641 118.167 674.712 137.215 684.615 163.36 685.349 196.602 L510.035 196.602 C510.769 220.506 518.104 239.555 532.408 254.122 546.345 268.688 563.216 276.158 583.388 276.158 616.397 276.158 640.97 260.471 657.474 228.724 Z M657.474 174.566 C654.174 155.517 645.371 140.95 631.801 130.119 618.231 119.287 602.46 114.058 584.488 114.058 547.812 114.058 523.972 134.227 512.602 174.566 Z" fill="#000000" fill-opacity="1" stroke="none"/>
   </g>
   <g id="group-6">
    <path id="Path-4" d="M722.392 94.636 L748.066 94.636 748.066 123.396 C755.034 111.817 761.636 103.227 768.238 97.624 774.473 92.022 781.808 89.407 789.877 89.407 797.579 89.407 805.648 91.648 813.717 96.13 L800.513 117.793 C796.845 115.552 793.178 114.432 789.143 114.432 781.441 114.432 774.473 118.54 767.871 126.384 760.902 134.227 756.135 144.685 752.834 157.011 749.533 169.71 748.066 192.494 748.066 225.735 L748.066 292.966 722.392 292.966 Z" fill="#000000" fill-opacity="1" stroke="none"/>
   </g>
   <g id="group-7">
    <path id="Path-5" d="M830.587 39.358 C830.587 33.755 832.421 28.526 836.822 24.418 840.49 20.309 845.625 18.068 851.493 18.068 856.994 18.068 862.129 19.936 866.164 24.044 870.198 28.153 872.032 33.382 872.032 38.984 872.032 44.96 870.198 49.816 866.164 53.924 862.129 58.033 856.994 60.274 851.493 60.274 845.625 60.274 840.49 58.033 836.822 53.924 832.421 49.816 830.587 44.96 830.587 39.358 Z M838.656 94.636 L863.963 94.636 863.963 292.966 838.656 292.966 Z" fill="#000000" fill-opacity="1" stroke="none"/>
   </g>
   <g id="group-8">
    <path id="Path-6" d="M906.507 195.108 C906.507 165.975 916.41 140.95 936.215 120.408 955.654 99.865 979.86 89.407 1008.101 89.407 1036.342 89.407 1060.182 99.865 1079.987 120.408 1099.425 140.95 1109.328 165.975 1109.328 194.735 1109.328 223.494 1099.792 248.146 1080.354 268.688 1060.548 289.231 1036.709 299.689 1008.101 299.689 979.493 299.689 955.287 289.231 935.848 268.688 916.41 248.146 906.507 223.868 906.507 195.108 Z M1084.021 195.482 C1084.021 173.445 1076.686 154.396 1061.649 138.336 1046.611 122.275 1028.64 114.432 1008.101 114.432 987.195 114.432 969.591 122.275 954.553 138.336 939.516 154.396 932.181 173.819 932.181 195.855 932.181 217.892 939.516 236.941 953.82 252.254 968.124 267.568 986.095 275.411 1007.734 275.411 1029.007 275.411 1046.978 267.568 1062.015 251.881 1076.686 236.567 1084.021 217.518 1084.021 195.482 Z" fill="#000000" fill-opacity="1" stroke="none"/>
   </g>
   <g id="group-9">
    <path id="Path-7" d="M1146.373 94.636 L1172.047 94.636 1172.047 123.396 C1179.015 111.817 1185.617 103.227 1192.219 97.624 1198.454 92.022 1205.789 89.407 1213.858 89.407 1221.56 89.407 1229.629 91.648 1237.697 96.13 L1224.494 117.793 C1220.826 115.552 1217.159 114.432 1213.124 114.432 1205.422 114.432 1198.454 118.54 1191.852 126.384 1184.883 134.227 1180.115 144.685 1176.815 157.011 1173.514 169.71 1172.047 192.494 1172.047 225.735 L1172.047 292.966 1146.373 292.966 Z" fill="#000000" fill-opacity="1" stroke="none"/>
   </g>
   <g id="group-10">
    <path id="Path-8" d="M1364.232 116.299 L1348.094 133.107 C1334.524 120.034 1321.687 113.311 1308.85 113.311 1300.415 113.311 1293.446 115.926 1287.945 121.155 1282.443 126.757 1279.509 133.107 1279.509 140.95 1279.509 148.794 1282.443 155.517 1288.678 161.12 1294.547 166.722 1304.816 173.445 1319.487 181.289 1334.157 189.506 1345.527 197.723 1353.229 206.687 1360.931 216.024 1364.599 227.229 1364.599 240.302 1364.599 257.11 1359.097 270.929 1347.728 282.508 1336.358 294.086 1322.054 299.689 1305.55 299.689 1294.547 299.689 1283.911 297.074 1274.008 292.219 1263.738 287.363 1254.936 280.267 1247.968 271.303 L1263.738 253.375 C1276.575 267.941 1290.146 275.411 1304.449 275.411 1314.352 275.411 1323.154 272.05 1330.123 265.327 1337.091 258.604 1340.759 250.76 1340.759 241.423 1340.759 232.458 1337.825 224.988 1331.59 219.012 1325.355 213.41 1314.719 206.687 1300.415 199.217 1285.744 191.747 1274.741 183.53 1267.773 174.566 1260.438 165.975 1256.77 154.396 1256.77 140.203 1256.77 126.384 1261.905 114.432 1272.174 104.347 1282.077 94.263 1295.647 89.407 1312.518 89.407 1329.023 89.407 1346.26 98.371 1364.232 116.299 Z" fill="#000000" fill-opacity="1" stroke="none"/>
   </g>
  </g>
 </g>
</svg>
