<?xml version="1.0" encoding="UTF-8"?>
<svg width="1367px" height="1080px" viewBox="0 0 1367 1080" xmlns="http://www.w3.org/2000/svg" xmlns:xlink="http://www.w3.org/1999/xlink" version="1.1">
 <!-- Generated by Pixelmator Pro Demo 2.0.6 -->
 <g id="group">
  <g id="group-1">
   <path id="Path" d="M1210.974 536.258 C1210.974 832.331 975.29 1072.346 684.559 1072.346 393.828 1072.346 158.145 832.331 158.145 536.258 158.145 240.185 393.828 0.17 684.559 0.17 975.29 0.17 1210.974 240.185 1210.974 536.258 Z" fill="#000000" fill-opacity="1" stroke="none"/>
  </g>
  <g id="group-2">
   <path id="Path-1" d="M1246.225 536.247 L1246.213 536.247 M719.809 536.247 L719.796 536.247" fill="none" stroke="#ffffff" stroke-width="0.56" stroke-opacity="1" stroke-linejoin="round" stroke-linecap="round"/>
  </g>
  <g id="group-3">
   <path id="Path-2" d="M1246.225 536.277 L1246.213 536.277 M719.809 536.277 L719.796 536.277" fill="none" stroke="#ffffff" stroke-width="0.56" stroke-opacity="1" stroke-linejoin="round" stroke-linecap="round"/>
  </g>
  <g id="group-4">
   <path id="Path-3" d="M420.644 446.194 C413.863 439.402 406.367 432.768 397.995 426.175 365.774 403.439 331.509 383.62 286.503 379.224 L286.373 379.184 C253.957 375.349 215.344 378.385 185.524 385.897 L178.58 387.935 C180.786 380.063 183.188 372.312 185.751 364.6 186.692 361.763 187.665 358.925 188.639 356.089 219.724 349.536 257.365 347.218 289.456 351.014 339.621 355.928 378.137 377.626 414.187 403.079 L414.479 403.279 414.771 403.519 C455.818 435.845 477.364 467.891 502.154 518.359 521.299 557.358 535.349 597.836 558.939 635.876 561.6 640.112 564.487 644.227 567.603 648.143 584.249 669.281 604.853 684.465 629.384 693.815 L629.417 693.815 C658.588 705.164 688.602 704.724 718.812 701.567 725.95 700.808 732.992 699.21 739.773 696.852 768.685 686.703 790.036 669.321 807.201 652.419 809.7 649.941 812.068 647.344 814.307 644.626 822.127 634.877 828.877 624.727 834.198 614.059 L617.508 67.67 C633.894 26.673 673.06 -0.099 716.476 -0.019 759.924 0.062 798.991 26.953 815.248 67.99 L949.097 405.876 1081.032 183.749 C1087.489 191.261 1093.752 199.013 1099.82 206.924 L962.142 438.762 1120.035 837.385 1060.752 837.865 C977.879 838.544 903.021 787.597 872 709.32 L847.275 647.024 C843.738 652.339 839.909 657.533 835.788 662.648 L835.788 662.688 C832.9 666.204 829.817 669.6 826.573 672.837 806.779 692.257 782.086 711.996 748.859 723.664 740.033 726.741 730.915 728.819 721.667 729.778 687.11 733.413 652.877 733.294 619.553 720.348 590.349 709.24 565.753 691.098 545.895 665.924 542.131 661.17 538.626 656.215 535.414 651.06 L535.381 651.02 C520.358 626.765 509.033 601.591 497.936 576.379 L442.644 698.73 C398.515 778.127 379.11 796.348 338.745 816.967 305.42 833.989 287.639 835.268 249.577 837.865 Z" fill="#ffffff" fill-opacity="1" stroke="none"/>
  </g>
 </g>
</svg>
